<svg width="40" height="40" viewBox="0 0 40 40" fill="none" xmlns="http://www.w3.org/2000/svg">
<path d="M20 0.799927C9.396 0.799927 0.799995 9.39593 0.799995 19.9999C0.799995 30.6039 9.396 39.1999 20 39.1999C30.604 39.1999 39.2 30.6039 39.2 19.9999C39.2 9.39593 30.604 0.799927 20 0.799927ZM27.81 16.5279C27.818 16.6919 27.82 16.8559 27.82 17.0159C27.82 22.0159 24.018 27.7779 17.062 27.7779C15.0066 27.7813 12.9939 27.191 11.266 26.0779C11.56 26.1139 11.862 26.1279 12.168 26.1279C13.94 26.1279 15.57 25.5259 16.864 24.5099C16.0754 24.4944 15.3113 24.2333 14.6782 23.763C14.0451 23.2926 13.5745 22.6364 13.332 21.8859C13.8983 21.9936 14.4817 21.971 15.038 21.8199C14.1821 21.6469 13.4124 21.1831 12.8594 20.5073C12.3064 19.8314 12.0042 18.9852 12.004 18.1119V18.0659C12.514 18.3479 13.098 18.5199 13.718 18.5399C12.9156 18.0058 12.3476 17.1853 12.1301 16.2462C11.9126 15.3071 12.0621 14.3204 12.548 13.4879C13.4979 14.6559 14.6825 15.6114 16.0251 16.2925C17.3677 16.9737 18.8384 17.3653 20.342 17.4419C20.1508 16.6305 20.2331 15.7787 20.576 15.0189C20.9189 14.2591 21.5032 13.6339 22.2381 13.2405C22.973 12.847 23.8173 12.7074 24.6398 12.8433C25.4622 12.9792 26.2167 13.383 26.786 13.9919C27.6323 13.8245 28.444 13.514 29.186 13.0739C28.9039 13.9502 28.3133 14.6943 27.524 15.1679C28.2737 15.0776 29.0057 14.8761 29.696 14.5699C29.189 15.3297 28.5503 15.9928 27.81 16.5279Z" fill="black"/>
</svg>
