<svg width="40" height="40" viewBox="0 0 40 40" fill="none" xmlns="http://www.w3.org/2000/svg">
<path d="M23.206 19.6659L18.714 17.5699C18.322 17.3879 18 17.5919 18 18.0259V21.9739C18 22.4079 18.322 22.6119 18.714 22.4299L23.204 20.3339C23.598 20.1499 23.598 19.8499 23.206 19.6659ZM20 0.799927C9.396 0.799927 0.799995 9.39593 0.799995 19.9999C0.799995 30.6039 9.396 39.1999 20 39.1999C30.604 39.1999 39.2 30.6039 39.2 19.9999C39.2 9.39593 30.604 0.799927 20 0.799927ZM20 27.7999C10.172 27.7999 10 26.9139 10 19.9999C10 13.0859 10.172 12.1999 20 12.1999C29.828 12.1999 30 13.0859 30 19.9999C30 26.9139 29.828 27.7999 20 27.7999Z" fill="black"/>
</svg>
