<svg width="44" height="32" viewBox="0 0 44 32" fill="none" xmlns="http://www.w3.org/2000/svg">
<path d="M12.3428 11.2344C12.3545 11.4102 12.3193 11.5801 12.2373 11.7441C12.167 11.9082 12.1025 12.0547 12.0439 12.1836L11.4814 12.7812L11.1475 13.7832C11.0186 13.877 10.8779 13.9707 10.7256 14.0645C10.585 14.1465 10.4561 14.2344 10.3389 14.3281C10.21 14.4336 10.0928 14.5508 9.9873 14.6797C9.89355 14.8086 9.78809 14.9199 9.6709 15.0137C9.55371 15.1074 9.41309 15.1895 9.24902 15.2598C9.09668 15.3184 8.95605 15.3887 8.82715 15.4707C8.59277 15.6113 8.37012 15.7578 8.15918 15.9102C7.95996 16.0625 7.74902 16.209 7.52637 16.3496C7.46777 16.373 7.4209 16.4023 7.38574 16.4375C7.3623 16.4609 7.32129 16.4844 7.2627 16.5078C7.22754 16.5312 7.0752 16.5781 6.80566 16.6484C6.53613 16.7188 6.2373 16.8008 5.90918 16.8945C5.59277 16.9766 5.29395 17.0527 5.0127 17.123C4.73145 17.1934 4.57324 17.2285 4.53809 17.2285C4.32715 17.252 4.11035 17.2637 3.8877 17.2637C3.66504 17.2637 3.44238 17.2695 3.21973 17.2812L2.95605 17.4395C2.82715 17.3457 2.68652 17.2578 2.53418 17.1758C2.38184 17.0938 2.25293 17.0059 2.14746 16.9121C2.03027 16.8066 1.91309 16.6895 1.7959 16.5605C1.67871 16.4199 1.57324 16.291 1.47949 16.1738C1.4209 16.0098 1.3623 15.8516 1.30371 15.6992C1.24512 15.5352 1.19824 15.377 1.16309 15.2246L1.0752 14.5566C1.05176 14.334 1.02832 14.1172 1.00488 13.9062C0.993164 13.6953 0.975586 13.4785 0.952148 13.2559C1.15137 12.7051 1.32715 12.1543 1.47949 11.6035C1.64355 11.041 1.84277 10.4902 2.07715 9.95117C2.13574 9.82227 2.18848 9.69336 2.23535 9.56445C2.29395 9.42383 2.35254 9.28906 2.41113 9.16016C2.48145 9.01953 2.55762 8.89062 2.63965 8.77344C2.72168 8.64453 2.79199 8.51562 2.85059 8.38672C2.90918 8.24609 2.95605 8.10547 2.99121 7.96484C3.02637 7.8125 3.07324 7.67188 3.13184 7.54297C3.16699 7.47266 3.22559 7.37305 3.30762 7.24414C3.38965 7.10352 3.47754 6.96289 3.57129 6.82227C3.66504 6.66992 3.75293 6.52344 3.83496 6.38281C3.92871 6.24219 4.00488 6.13086 4.06348 6.04883C4.15723 5.93164 4.25098 5.82031 4.34473 5.71484C4.43848 5.60938 4.51465 5.49219 4.57324 5.36328C4.69043 5.16406 4.80176 4.91211 4.90723 4.60742C5.0127 4.30273 5.12988 4.0332 5.25879 3.79883C5.39941 3.54102 5.56348 3.30078 5.75098 3.07812C5.9502 2.84375 6.13184 2.60352 6.2959 2.35742C6.47168 2.11133 6.6416 1.8418 6.80566 1.54883L7.5791 0.986328L7.93066 1.33789L8.77441 1.19727L9.30176 1.98828C9.27832 2.16406 9.24902 2.36328 9.21387 2.58594C9.19043 2.80859 9.16699 3.03711 9.14355 3.27148C9.13184 3.49414 9.12012 3.7168 9.1084 3.93945C9.1084 4.15039 9.12012 4.33789 9.14355 4.50195C9.08496 4.71289 8.99707 4.93555 8.87988 5.16992C8.77441 5.39258 8.65137 5.58594 8.51074 5.75L8.44043 6.69922L7.7373 7.33203L7.64941 8.22852L7.05176 8.93164C7.0166 9.0957 6.98145 9.26562 6.94629 9.44141C6.91113 9.60547 6.86426 9.76367 6.80566 9.91602C6.74707 10.0566 6.67676 10.2031 6.59473 10.3555C6.5127 10.4961 6.43066 10.6426 6.34863 10.7949C6.11426 10.9941 5.87402 11.2168 5.62793 11.4629C5.38184 11.709 5.15918 11.9551 4.95996 12.2012C4.85449 12.3301 4.75488 12.4707 4.66113 12.623C4.5791 12.7637 4.49121 12.8984 4.39746 13.0273C4.09277 13.4141 3.76465 13.7773 3.41309 14.1172C3.06152 14.457 2.71582 14.8086 2.37598 15.1719L2.7627 15.8574C3.00879 15.9395 3.26074 16.0156 3.51855 16.0859C3.77637 16.1562 4.03418 16.2207 4.29199 16.2793C4.40918 16.2559 4.54395 16.2324 4.69629 16.209C4.84863 16.1738 5.00684 16.1387 5.1709 16.1035C5.33496 16.0566 5.49316 16.0098 5.64551 15.9629C5.80957 15.916 5.94434 15.8691 6.0498 15.8223C6.28418 15.7285 6.55371 15.5938 6.8584 15.418C7.16309 15.2305 7.4209 15.0664 7.63184 14.9258C8.00684 14.6914 8.3877 14.4512 8.77441 14.2051C9.16113 13.959 9.53027 13.7012 9.88184 13.4316C10.1162 13.2559 10.3623 13.0332 10.6201 12.7637C10.8779 12.4941 11.1182 12.2422 11.3408 12.0078C11.5752 11.7617 11.7803 11.5625 11.9561 11.4102C12.1436 11.2578 12.2725 11.1992 12.3428 11.2344ZM7.56152 2.91992C7.31543 3.33008 7.05176 3.72852 6.77051 4.11523C6.50098 4.49023 6.24902 4.88281 6.01465 5.29297C5.93262 5.43359 5.8623 5.58008 5.80371 5.73242C5.74512 5.87305 5.66895 6.01367 5.5752 6.1543C5.49316 6.2832 5.40527 6.41211 5.31152 6.54102C5.21777 6.66992 5.13574 6.81055 5.06543 6.96289C4.9248 7.23242 4.7959 7.51953 4.67871 7.82422C4.57324 8.11719 4.45605 8.4043 4.32715 8.68555C4.18652 8.9668 4.02246 9.23047 3.83496 9.47656C3.64746 9.72266 3.47754 9.98633 3.3252 10.2676L3.04395 10.8301C3.02051 10.8887 2.99707 10.9355 2.97363 10.9707C2.9502 10.9941 2.92676 11.0352 2.90332 11.0938C2.85645 11.2227 2.83301 11.3633 2.83301 11.5156C2.83301 11.668 2.81543 11.8086 2.78027 11.9375C2.74512 12.0781 2.69238 12.2129 2.62207 12.3418C2.55176 12.4707 2.4873 12.5996 2.42871 12.7285C2.37012 12.8574 2.32324 12.9922 2.28809 13.1328C2.25293 13.2617 2.21191 13.3906 2.16504 13.5195C2.25879 13.4258 2.3584 13.3438 2.46387 13.2734C2.58105 13.1914 2.69238 13.1035 2.79785 13.0098C2.90332 12.9043 3.00293 12.793 3.09668 12.6758C3.19043 12.5586 3.2959 12.4531 3.41309 12.3594C3.51855 12.2656 3.62988 12.1836 3.74707 12.1133C3.87598 12.0312 3.99902 11.9492 4.11621 11.8672C4.30371 11.6094 4.46777 11.3457 4.6084 11.0762C4.67871 10.9473 4.7373 10.8008 4.78418 10.6367C4.84277 10.4727 4.91309 10.3262 4.99512 10.1973C5.06543 10.0684 5.15332 9.94531 5.25879 9.82812C5.37598 9.71094 5.47559 9.58789 5.55762 9.45898C5.65137 9.33008 5.72754 9.19531 5.78613 9.05469C5.85645 8.91406 5.93262 8.7793 6.01465 8.65039C6.17871 8.39258 6.36035 8.14648 6.55957 7.91211L6.64746 6.80469L7.28027 6.06641L7.36816 5.39844L7.80762 4.7832L7.86035 3.79883L7.56152 2.91992ZM22.0283 11.4805C22.0752 11.6562 22.0576 11.8086 21.9756 11.9375C21.8936 12.0547 21.7822 12.1602 21.6416 12.2539C21.5127 12.3477 21.3662 12.4355 21.2021 12.5176C21.0498 12.5879 20.9209 12.6699 20.8154 12.7637C20.2881 12.8809 19.8076 12.9688 19.374 13.0273C18.9521 13.0742 18.4834 13.1387 17.9678 13.2207C17.8154 13.2441 17.6689 13.2441 17.5283 13.2207C17.3994 13.1855 17.2646 13.1738 17.124 13.1855C17.042 13.1855 16.9658 13.1855 16.8955 13.1855C16.8252 13.1738 16.7549 13.1738 16.6846 13.1855C16.415 13.209 16.2393 13.3027 16.1572 13.4668C16.0752 13.6191 16.0049 13.8008 15.9463 14.0117C15.8994 14.2109 15.835 14.4043 15.7529 14.5918C15.6826 14.7676 15.5244 14.8906 15.2783 14.9609C15.2549 15.0195 15.2607 15.0723 15.2959 15.1191C15.3428 15.166 15.3779 15.207 15.4014 15.2422C15.2021 15.3008 15.0674 15.4062 14.9971 15.5586C14.9385 15.7109 14.8857 15.8633 14.8389 16.0156C14.792 16.168 14.7217 16.2969 14.6279 16.4023C14.5459 16.5078 14.3818 16.543 14.1357 16.5078C13.7725 16.8945 13.3447 17.2051 12.8525 17.4395C12.3604 17.6855 11.8506 17.8438 11.3232 17.9141C11.2295 17.8672 11.1357 17.8086 11.042 17.7383C10.96 17.668 10.8721 17.6035 10.7783 17.5449C10.6963 17.4863 10.6025 17.4395 10.4971 17.4043C10.4033 17.3809 10.292 17.3809 10.1631 17.4043C10.1514 17.1582 10.1045 16.9297 10.0225 16.7188C9.92871 16.5078 9.81152 16.3086 9.6709 16.1211C9.64746 15.9102 9.67676 15.7168 9.75879 15.541C9.8291 15.3535 9.90527 15.1719 9.9873 14.9961C10.0693 14.8203 10.1396 14.6445 10.1982 14.4688C10.2451 14.2812 10.2334 14.0703 10.1631 13.8359C10.2803 13.7656 10.3564 13.6836 10.3916 13.5898C10.4385 13.4961 10.4678 13.4023 10.4795 13.3086C10.5029 13.2031 10.5322 13.1094 10.5674 13.0273C10.6025 12.9336 10.6846 12.8574 10.8135 12.7988C10.7197 12.5176 10.7314 12.3125 10.8486 12.1836C10.9775 12.043 11.1299 11.9199 11.3057 11.8145C11.4814 11.709 11.6455 11.5918 11.7979 11.4629C11.9502 11.334 12.0088 11.1406 11.9736 10.8828C12.0439 10.8125 12.126 10.7539 12.2197 10.707C12.3135 10.6602 12.4014 10.6191 12.4834 10.584C12.5771 10.5371 12.665 10.4902 12.7471 10.4434C12.8291 10.3965 12.9053 10.332 12.9756 10.25C12.8936 10.1914 12.8525 10.1328 12.8525 10.0742C12.8643 10.0156 12.8818 9.95703 12.9053 9.89844C12.9287 9.82812 12.9521 9.75781 12.9756 9.6875C13.0107 9.61719 13.0107 9.54688 12.9756 9.47656C13.292 9.52344 13.5674 9.48242 13.8018 9.35352C14.0479 9.21289 14.2764 9.07227 14.4873 8.93164C14.71 8.79102 14.9326 8.69141 15.1553 8.63281C15.3779 8.57422 15.6357 8.64453 15.9287 8.84375C15.9521 8.92578 15.9873 9.04883 16.0342 9.21289C16.0928 9.36523 16.1455 9.52344 16.1924 9.6875C16.251 9.85156 16.3037 10.0098 16.3506 10.1621C16.3975 10.3145 16.4268 10.4258 16.4385 10.4961C16.4385 10.5547 16.4385 10.6484 16.4385 10.7773C16.4385 10.9062 16.4385 11.0469 16.4385 11.1992C16.4385 11.3398 16.4385 11.4746 16.4385 11.6035C16.4385 11.7324 16.4385 11.832 16.4385 11.9023C16.7783 12.1016 17.1182 12.2246 17.458 12.2715C17.7979 12.3066 18.1377 12.2246 18.4775 12.0254C18.6064 12.1426 18.7295 12.1777 18.8467 12.1309C18.9639 12.0723 19.0752 12.0078 19.1807 11.9375C19.2979 11.8672 19.415 11.832 19.5322 11.832C19.6494 11.8203 19.7666 11.9141 19.8838 12.1133C20.0479 11.9609 20.2178 11.8672 20.3936 11.832C20.5693 11.7852 20.751 11.7617 20.9385 11.7617C21.126 11.75 21.3076 11.7324 21.4834 11.709C21.6709 11.6855 21.8525 11.6094 22.0283 11.4805ZM15.2783 11.7793C15.2783 11.6035 15.3076 11.416 15.3662 11.2168C15.4248 11.0176 15.4717 10.8242 15.5068 10.6367C15.542 10.4375 15.5361 10.25 15.4893 10.0742C15.4541 9.89844 15.3428 9.74023 15.1553 9.59961C15.0264 9.66992 14.9209 9.76953 14.8389 9.89844C14.7568 10.0156 14.6748 10.1387 14.5928 10.2676C14.5107 10.3848 14.4111 10.4844 14.2939 10.5664C14.1885 10.6484 14.0479 10.6719 13.8721 10.6367C13.8135 10.7773 13.8135 10.8945 13.8721 10.9883C13.9307 11.0703 14.001 11.1523 14.083 11.2344C14.165 11.3047 14.2412 11.3809 14.3115 11.4629C14.3936 11.5449 14.4229 11.6504 14.3994 11.7793C14.4463 11.8145 14.5107 11.8496 14.5928 11.8848C14.6748 11.9082 14.7568 11.9258 14.8389 11.9375C14.9326 11.9375 15.0205 11.9258 15.1025 11.9023C15.1846 11.8789 15.2432 11.8379 15.2783 11.7793ZM15.1553 13.1855C14.9209 13.1855 14.7158 13.1328 14.54 13.0273C14.376 12.9102 14.2061 12.7812 14.0303 12.6406C13.8662 12.5 13.6904 12.3711 13.5029 12.2539C13.3271 12.125 13.1104 12.0488 12.8525 12.0254C12.7471 12.166 12.624 12.3008 12.4834 12.4297C12.3428 12.5469 12.2197 12.6758 12.1143 12.8164C12.0088 12.957 11.9326 13.1094 11.8857 13.2734C11.8506 13.4375 11.8799 13.625 11.9736 13.8359C11.7041 13.9648 11.5225 14.1523 11.4287 14.3984C11.335 14.6328 11.2705 14.8906 11.2354 15.1719C11.2119 15.4531 11.1885 15.7344 11.165 16.0156C11.1416 16.2969 11.0654 16.5488 10.9365 16.7715L11.3232 16.5078C11.3701 16.5312 11.4053 16.5664 11.4287 16.6133C11.4639 16.6602 11.4697 16.7129 11.4463 16.7715C11.54 16.6777 11.6455 16.6074 11.7627 16.5605C11.8799 16.502 11.9971 16.4609 12.1143 16.4375C12.2432 16.4023 12.3662 16.373 12.4834 16.3496C12.6123 16.3262 12.7354 16.291 12.8525 16.2441C13.1455 16.4082 13.3564 16.4434 13.4854 16.3496C13.6143 16.2559 13.7197 16.1152 13.8018 15.9277C13.8838 15.7402 13.9717 15.5469 14.0654 15.3477C14.1592 15.1367 14.3115 15.0078 14.5225 14.9609L14.3994 14.8379C14.5986 14.5918 14.7744 14.3398 14.9268 14.082C15.0908 13.8125 15.167 13.5137 15.1553 13.1855ZM32.417 11.9727C32.2881 12.1367 32.1885 12.3184 32.1182 12.5176C32.0479 12.7168 31.96 12.9043 31.8545 13.0801C31.7607 13.2559 31.6377 13.4023 31.4854 13.5195C31.3447 13.6367 31.1455 13.6895 30.8877 13.6777C30.7002 13.748 30.5596 13.877 30.4658 14.0645C30.3838 14.2402 30.3018 14.4219 30.2197 14.6094C30.1377 14.7852 30.0322 14.9316 29.9033 15.0488C29.7744 15.1543 29.5811 15.166 29.3232 15.084C28.9951 15.2246 28.6963 15.4121 28.4268 15.6465C28.1689 15.8691 27.9229 16.1035 27.6885 16.3496C27.6064 16.4316 27.5127 16.5371 27.4072 16.666C27.3018 16.7832 27.2021 16.8711 27.1084 16.9297C27.0264 16.9766 26.9443 16.9824 26.8623 16.9473C26.7803 16.9121 26.7041 16.877 26.6338 16.8418C26.5635 16.7949 26.4932 16.7715 26.4229 16.7715C26.3643 16.7715 26.3115 16.8242 26.2646 16.9297C26.3467 17.0938 26.3643 17.2051 26.3174 17.2637C26.2705 17.334 26.1943 17.3867 26.0889 17.4219C25.9834 17.457 25.8721 17.4863 25.7549 17.5098C25.6377 17.5332 25.5439 17.5742 25.4736 17.6328C25.333 17.7617 25.2334 17.9199 25.1748 18.1074C25.1162 18.2949 25.0635 18.4824 25.0166 18.6699C24.9697 18.8574 24.8994 19.0332 24.8057 19.1973C24.7236 19.373 24.583 19.5078 24.3838 19.6016C24.501 19.6836 24.5479 19.7656 24.5244 19.8477C24.5127 19.9297 24.4834 20.0117 24.4365 20.0938C24.3896 20.1875 24.3545 20.2754 24.3311 20.3574C24.3193 20.4395 24.3662 20.5215 24.4717 20.6035C24.2959 20.8262 24.1377 21.0664 23.9971 21.3242C23.8682 21.582 23.7393 21.8398 23.6104 22.0977C23.4814 22.3672 23.3408 22.625 23.1885 22.8711C23.0479 23.1289 22.8662 23.3574 22.6436 23.5566L22.6963 23.9785C22.5205 23.9316 22.4092 23.9375 22.3623 23.9961C22.3271 24.0547 22.3096 24.1367 22.3096 24.2422C22.3096 24.3477 22.3096 24.4531 22.3096 24.5586C22.3213 24.6758 22.2861 24.7637 22.2041 24.8223C22.1689 24.8691 22.1279 24.9043 22.0811 24.9277C22.0459 24.9512 22.0107 24.9805 21.9756 25.0156C21.6006 25.2969 21.3428 25.6543 21.2021 26.0879C21.1787 26.1582 21.1611 26.2285 21.1494 26.2988C21.1377 26.3691 21.1201 26.4453 21.0967 26.5273C21.0381 26.6914 20.9443 26.8613 20.8154 27.0371C20.6865 27.2129 20.5459 27.3945 20.3936 27.582C20.2412 27.7695 20.0947 27.9629 19.9541 28.1621C19.8135 28.373 19.7021 28.584 19.6201 28.7949C19.4326 28.7715 19.2861 28.7891 19.1807 28.8477C19.0635 28.918 18.9697 29.0059 18.8994 29.1113C18.8291 29.2285 18.7705 29.3516 18.7236 29.4805C18.6768 29.6094 18.6182 29.7207 18.5479 29.8145C18.4658 29.9199 18.3662 29.9961 18.249 30.043C18.1201 30.1016 17.9561 30.1016 17.7568 30.043L16.9658 30.7637C16.8252 30.6816 16.6904 30.6641 16.5615 30.7109C16.4209 30.7578 16.2861 30.8223 16.1572 30.9043C16.0166 30.9863 15.8818 31.0508 15.7529 31.0977C15.6123 31.1445 15.4658 31.127 15.3135 31.0449C15.2314 31.1387 15.1611 31.1855 15.1025 31.1855C15.0439 31.1973 14.9736 31.1504 14.8916 31.0449L14.6279 31.3262C14.4873 31.209 14.3174 31.0977 14.1182 30.9922C13.9072 30.8984 13.7139 30.7871 13.5381 30.6582C13.3623 30.541 13.2217 30.4004 13.1162 30.2363C13.0107 30.084 12.9932 29.8848 13.0635 29.6387C13.04 29.5684 13.0049 29.4922 12.958 29.4102C12.8994 29.3281 12.8525 29.2402 12.8174 29.1465C12.7822 29.0645 12.7588 28.9766 12.7471 28.8828C12.7354 28.8008 12.7588 28.7246 12.8174 28.6543C12.7119 28.4551 12.6768 28.25 12.7119 28.0391C12.7354 27.8398 12.7764 27.6406 12.835 27.4414C12.8936 27.2422 12.9404 27.043 12.9756 26.8438C13.0107 26.6445 12.9756 26.4453 12.8701 26.2461C13.0107 26.1406 13.1162 26.0059 13.1865 25.8418C13.2451 25.6777 13.3037 25.5078 13.3623 25.332C13.4092 25.1562 13.4619 24.9863 13.5205 24.8223C13.5791 24.6582 13.6787 24.5234 13.8193 24.418L13.8018 24.1367C14.3525 23.5508 14.9385 23.0117 15.5596 22.5195C16.1689 22.0391 16.8604 21.6816 17.6338 21.4473C17.7861 21.1777 17.9854 20.9785 18.2314 20.8496C18.4775 20.7324 18.7295 20.6211 18.9873 20.5156C19.2334 20.4219 19.4619 20.2988 19.6729 20.1465C19.8838 20.0059 20.042 19.7773 20.1475 19.4609C20.2061 19.5898 20.2646 19.6426 20.3232 19.6191C20.3818 19.6074 20.4404 19.5781 20.499 19.5312C20.5693 19.4961 20.6338 19.4668 20.6924 19.4434C20.751 19.4316 20.8096 19.4844 20.8682 19.6016C20.9854 19.25 21.1729 18.9688 21.4307 18.7578C21.7002 18.5469 21.9932 18.3594 22.3096 18.1953C22.6377 18.043 22.9658 17.8906 23.2939 17.7383C23.6221 17.5977 23.9092 17.4219 24.1553 17.2109C24.4131 17 24.6064 16.7422 24.7354 16.4375C24.8643 16.1211 24.8936 15.7168 24.8232 15.2246C24.9287 15.1543 24.999 15.0664 25.0342 14.9609C25.0693 14.8438 25.0928 14.7266 25.1045 14.6094C25.1279 14.4922 25.1572 14.3867 25.1924 14.293C25.2275 14.1992 25.3037 14.1348 25.4209 14.0996C25.3389 13.9707 25.2393 13.9121 25.1221 13.9238C25.0049 13.9355 24.8818 13.9707 24.7529 14.0293C24.6357 14.0879 24.5244 14.1465 24.4189 14.2051C24.3135 14.2637 24.2256 14.2754 24.1553 14.2402C24.1201 14.4043 24.0439 14.5215 23.9268 14.5918C23.8213 14.6621 23.7041 14.7266 23.5752 14.7852C23.4463 14.832 23.3115 14.8848 23.1709 14.9434C23.0303 15.002 22.9189 15.0957 22.8369 15.2246C22.7314 15.1777 22.6318 15.2012 22.5381 15.2949C22.4561 15.377 22.3682 15.4707 22.2744 15.5762C22.1924 15.6699 22.0986 15.7402 21.9932 15.7871C21.8877 15.834 21.7646 15.7871 21.624 15.6465C21.5537 15.834 21.4365 15.957 21.2725 16.0156C21.1201 16.0742 20.9502 16.1035 20.7627 16.1035C20.5752 16.1035 20.3818 16.0918 20.1826 16.0684C19.9951 16.0449 19.8252 16.0508 19.6729 16.0859L19.374 15.7871C19.3506 15.8457 19.3154 15.8926 19.2686 15.9277C19.21 15.9629 19.1514 15.9688 19.0928 15.9453C18.999 15.7461 18.9111 15.5352 18.8291 15.3125C18.7354 15.0781 18.6768 14.8496 18.6533 14.627C18.6182 14.3926 18.6357 14.1699 18.7061 13.959C18.7764 13.7363 18.917 13.543 19.1279 13.3789C19.4561 12.7812 19.8838 12.3125 20.4111 11.9727C20.4697 12.0195 20.5342 12.0371 20.6045 12.0254C20.6748 12.002 20.7451 11.9727 20.8154 11.9375C20.8975 11.8906 20.9736 11.8438 21.0439 11.7969C21.1143 11.7383 21.1787 11.7031 21.2373 11.6914C21.2725 11.5625 21.3369 11.4395 21.4307 11.3223C21.5361 11.2051 21.6475 11.0996 21.7646 11.0059C21.8936 10.9121 22.0225 10.8301 22.1514 10.7598C22.292 10.6777 22.4209 10.6074 22.5381 10.5488C22.7607 10.4434 22.9658 10.3145 23.1533 10.1621C23.3525 9.99805 23.5518 9.8457 23.751 9.70508C23.9502 9.55273 24.1553 9.42383 24.3662 9.31836C24.5771 9.21289 24.8174 9.16016 25.0869 9.16016L25.4033 9.44141C25.2041 9.55859 25.0283 9.70508 24.876 9.88086C24.7354 10.0449 24.5889 10.2148 24.4365 10.3906C24.2842 10.5547 24.1201 10.707 23.9443 10.8477C23.7686 10.9883 23.5518 11.082 23.2939 11.1289C23.083 11.5391 22.7959 11.8906 22.4326 12.1836C22.0811 12.4648 21.7178 12.7285 21.3428 12.9746C21.3428 13.1504 21.29 13.291 21.1846 13.3965C21.0791 13.502 20.9561 13.5957 20.8154 13.6777C20.6748 13.7598 20.5342 13.8359 20.3936 13.9062C20.2529 13.9648 20.1357 14.0469 20.042 14.1523C19.96 14.2461 19.9189 14.3691 19.9189 14.5215C19.9189 14.6621 19.9951 14.8496 20.1475 15.084C20.2881 15.0137 20.458 14.9668 20.6572 14.9434C20.8564 14.9199 21.0498 14.8906 21.2373 14.8555C21.4248 14.8086 21.5889 14.7441 21.7295 14.6621C21.8818 14.5684 21.9873 14.4277 22.0459 14.2402C22.21 14.0996 22.3857 14.0117 22.5732 13.9766C22.7607 13.9414 22.9541 13.9355 23.1533 13.959C23.54 13.5371 23.9268 13.1504 24.3135 12.7988C24.7119 12.4355 25.0869 12.0664 25.4385 11.6914C25.79 11.3164 26.1123 10.918 26.4053 10.4961C26.71 10.0625 26.9736 9.56445 27.1963 9.00195C27.4307 8.93164 27.6416 8.96094 27.8291 9.08984C28.0166 9.21875 28.1514 9.38281 28.2334 9.58203C28.21 9.72266 28.1689 9.85742 28.1104 9.98633C28.0635 10.1035 28.0166 10.2207 27.9697 10.3379C27.9346 10.4434 27.9053 10.5605 27.8818 10.6895C27.8701 10.8184 27.8936 10.9648 27.9521 11.1289C27.8584 11.1055 27.7822 11.1348 27.7236 11.2168C27.6768 11.2988 27.624 11.3691 27.5654 11.4277C27.6006 11.5801 27.5947 11.7207 27.5479 11.8496C27.501 11.9668 27.4424 12.084 27.3721 12.2012C27.3018 12.3066 27.2373 12.4238 27.1787 12.5527C27.1318 12.6816 27.1201 12.8223 27.1436 12.9746C26.9795 13.2793 26.8564 13.6016 26.7744 13.9414C26.7041 14.2695 26.6572 14.6035 26.6338 14.9434L26.9502 15.2246C27.1025 15.002 27.29 14.8438 27.5127 14.75C27.7471 14.6562 27.9814 14.5801 28.2158 14.5215C28.4502 14.4512 28.6787 14.375 28.9014 14.293C29.124 14.1992 29.3174 14.041 29.4814 13.8184C29.5518 13.4785 29.6982 13.2383 29.9209 13.0977C30.1436 12.9453 30.3779 12.8164 30.624 12.7109C30.8701 12.6055 31.1045 12.4883 31.3271 12.3594C31.5615 12.2188 31.7256 11.9961 31.8193 11.6914H32.2588C32.2354 11.75 32.2471 11.8027 32.2939 11.8496C32.3408 11.8965 32.3818 11.9375 32.417 11.9727ZM22.6963 19.7598C22.5791 19.8301 22.4502 19.8945 22.3096 19.9531C22.1689 20.0117 22.0283 20.0762 21.8877 20.1465C21.7471 20.2168 21.6182 20.2988 21.501 20.3926C21.3838 20.4863 21.2959 20.6035 21.2373 20.7441C21.1084 20.6738 20.9854 20.668 20.8682 20.7266C20.7627 20.7969 20.6572 20.873 20.5518 20.9551C20.4463 21.0488 20.335 21.125 20.2178 21.1836C20.1123 21.2422 19.9951 21.2363 19.8662 21.166C19.6436 21.3066 19.4326 21.459 19.2334 21.623C19.0225 21.7871 18.8115 21.9453 18.6006 22.0977C18.3896 22.2617 18.1729 22.4082 17.9502 22.5371C17.7158 22.6777 17.4697 22.7832 17.2119 22.8535C17.083 23.0645 16.9131 23.2285 16.7021 23.3457C16.4912 23.4746 16.2803 23.5977 16.0693 23.7148C15.8467 23.832 15.6475 23.9727 15.4717 24.1367C15.2959 24.3008 15.1846 24.5293 15.1377 24.8223C14.7744 25.0566 14.5283 25.3555 14.3994 25.7188C14.2588 26.0938 14.1826 26.4863 14.1709 26.8965C14.1592 27.3184 14.1768 27.7402 14.2236 28.1621C14.2705 28.5957 14.2939 28.9883 14.2939 29.3398C14.4463 29.5156 14.5986 29.6387 14.751 29.709C14.9033 29.7793 15.0615 29.8145 15.2256 29.8145C15.3896 29.8145 15.5596 29.791 15.7354 29.7441C15.8994 29.709 16.0811 29.6738 16.2803 29.6387C16.3271 29.4629 16.415 29.3457 16.5439 29.2871C16.6611 29.2402 16.79 29.2051 16.9307 29.1816C17.0596 29.1582 17.1826 29.123 17.2998 29.0762C17.4053 29.041 17.4639 28.9473 17.4756 28.7949L17.6338 28.9355C17.6455 28.748 17.6982 28.5898 17.792 28.4609C17.8857 28.3438 17.9971 28.2324 18.126 28.127C18.2549 28.0215 18.3955 27.9219 18.5479 27.8281C18.6885 27.7344 18.8115 27.6289 18.917 27.5117C18.8936 27.2891 18.9346 27.1016 19.04 26.9492C19.1455 26.7969 19.2627 26.6562 19.3916 26.5273C19.5205 26.3984 19.6377 26.2578 19.7432 26.1055C19.8369 25.9531 19.8721 25.7598 19.8486 25.5254C19.9658 25.4785 20.0479 25.4023 20.0947 25.2969C20.1416 25.1914 20.1885 25.0918 20.2354 24.998C20.2822 24.9043 20.3408 24.834 20.4111 24.7871C20.4932 24.7402 20.6162 24.752 20.7803 24.8223C20.6162 24.6934 20.5459 24.5938 20.5693 24.5234C20.6045 24.4531 20.6631 24.3887 20.7451 24.3301C20.8271 24.2832 20.9033 24.2246 20.9736 24.1543C21.0439 24.084 21.0439 23.9785 20.9736 23.8379C21.2549 23.7207 21.4365 23.5508 21.5186 23.3281C21.6006 23.1055 21.6592 22.8652 21.6943 22.6074C21.7412 22.3613 21.8057 22.1152 21.8877 21.8691C21.9697 21.6348 22.1514 21.4473 22.4326 21.3066C22.4092 21.0957 22.4443 20.9082 22.5381 20.7441C22.6436 20.5918 22.7432 20.4453 22.8369 20.3047C22.9424 20.1641 23.0127 20.0176 23.0479 19.8652C23.0947 19.7129 23.0537 19.5312 22.9248 19.3203L22.6963 19.7598ZM43.3506 11.4805C43.3975 11.6562 43.3799 11.8086 43.2979 11.9375C43.2158 12.0547 43.1045 12.1602 42.9639 12.2539C42.835 12.3477 42.6885 12.4355 42.5244 12.5176C42.3721 12.5879 42.2432 12.6699 42.1377 12.7637C41.6104 12.8809 41.1299 12.9688 40.6963 13.0273C40.2744 13.0742 39.8057 13.1387 39.29 13.2207C39.1377 13.2441 38.9912 13.2441 38.8506 13.2207C38.7217 13.1855 38.5869 13.1738 38.4463 13.1855C38.3643 13.1855 38.2881 13.1855 38.2178 13.1855C38.1475 13.1738 38.0771 13.1738 38.0068 13.1855C37.7373 13.209 37.5615 13.3027 37.4795 13.4668C37.3975 13.6191 37.3271 13.8008 37.2686 14.0117C37.2217 14.2109 37.1572 14.4043 37.0752 14.5918C37.0049 14.7676 36.8467 14.8906 36.6006 14.9609C36.5771 15.0195 36.583 15.0723 36.6182 15.1191C36.665 15.166 36.7002 15.207 36.7236 15.2422C36.5244 15.3008 36.3896 15.4062 36.3193 15.5586C36.2607 15.7109 36.208 15.8633 36.1611 16.0156C36.1143 16.168 36.0439 16.2969 35.9502 16.4023C35.8682 16.5078 35.7041 16.543 35.458 16.5078C35.0947 16.8945 34.667 17.2051 34.1748 17.4395C33.6826 17.6855 33.1729 17.8438 32.6455 17.9141C32.5518 17.8672 32.458 17.8086 32.3643 17.7383C32.2822 17.668 32.1943 17.6035 32.1006 17.5449C32.0186 17.4863 31.9248 17.4395 31.8193 17.4043C31.7256 17.3809 31.6143 17.3809 31.4854 17.4043C31.4736 17.1582 31.4268 16.9297 31.3447 16.7188C31.251 16.5078 31.1338 16.3086 30.9932 16.1211C30.9697 15.9102 30.999 15.7168 31.0811 15.541C31.1514 15.3535 31.2275 15.1719 31.3096 14.9961C31.3916 14.8203 31.4619 14.6445 31.5205 14.4688C31.5674 14.2812 31.5557 14.0703 31.4854 13.8359C31.6025 13.7656 31.6787 13.6836 31.7139 13.5898C31.7607 13.4961 31.79 13.4023 31.8018 13.3086C31.8252 13.2031 31.8545 13.1094 31.8896 13.0273C31.9248 12.9336 32.0068 12.8574 32.1357 12.7988C32.042 12.5176 32.0537 12.3125 32.1709 12.1836C32.2998 12.043 32.4521 11.9199 32.6279 11.8145C32.8037 11.709 32.9678 11.5918 33.1201 11.4629C33.2725 11.334 33.3311 11.1406 33.2959 10.8828C33.3662 10.8125 33.4482 10.7539 33.542 10.707C33.6357 10.6602 33.7236 10.6191 33.8057 10.584C33.8994 10.5371 33.9873 10.4902 34.0693 10.4434C34.1514 10.3965 34.2275 10.332 34.2979 10.25C34.2158 10.1914 34.1748 10.1328 34.1748 10.0742C34.1865 10.0156 34.2041 9.95703 34.2275 9.89844C34.251 9.82812 34.2744 9.75781 34.2979 9.6875C34.333 9.61719 34.333 9.54688 34.2979 9.47656C34.6143 9.52344 34.8896 9.48242 35.124 9.35352C35.3701 9.21289 35.5986 9.07227 35.8096 8.93164C36.0322 8.79102 36.2549 8.69141 36.4775 8.63281C36.7002 8.57422 36.958 8.64453 37.251 8.84375C37.2744 8.92578 37.3096 9.04883 37.3564 9.21289C37.415 9.36523 37.4678 9.52344 37.5146 9.6875C37.5732 9.85156 37.626 10.0098 37.6729 10.1621C37.7197 10.3145 37.749 10.4258 37.7607 10.4961C37.7607 10.5547 37.7607 10.6484 37.7607 10.7773C37.7607 10.9062 37.7607 11.0469 37.7607 11.1992C37.7607 11.3398 37.7607 11.4746 37.7607 11.6035C37.7607 11.7324 37.7607 11.832 37.7607 11.9023C38.1006 12.1016 38.4404 12.2246 38.7803 12.2715C39.1201 12.3066 39.46 12.2246 39.7998 12.0254C39.9287 12.1426 40.0518 12.1777 40.1689 12.1309C40.2861 12.0723 40.3975 12.0078 40.5029 11.9375C40.6201 11.8672 40.7373 11.832 40.8545 11.832C40.9717 11.8203 41.0889 11.9141 41.2061 12.1133C41.3701 11.9609 41.54 11.8672 41.7158 11.832C41.8916 11.7852 42.0732 11.7617 42.2607 11.7617C42.4482 11.75 42.6299 11.7324 42.8057 11.709C42.9932 11.6855 43.1748 11.6094 43.3506 11.4805ZM36.6006 11.7793C36.6006 11.6035 36.6299 11.416 36.6885 11.2168C36.7471 11.0176 36.7939 10.8242 36.8291 10.6367C36.8643 10.4375 36.8584 10.25 36.8115 10.0742C36.7764 9.89844 36.665 9.74023 36.4775 9.59961C36.3486 9.66992 36.2432 9.76953 36.1611 9.89844C36.0791 10.0156 35.9971 10.1387 35.915 10.2676C35.833 10.3848 35.7334 10.4844 35.6162 10.5664C35.5107 10.6484 35.3701 10.6719 35.1943 10.6367C35.1357 10.7773 35.1357 10.8945 35.1943 10.9883C35.2529 11.0703 35.3232 11.1523 35.4053 11.2344C35.4873 11.3047 35.5635 11.3809 35.6338 11.4629C35.7158 11.5449 35.7451 11.6504 35.7217 11.7793C35.7686 11.8145 35.833 11.8496 35.915 11.8848C35.9971 11.9082 36.0791 11.9258 36.1611 11.9375C36.2549 11.9375 36.3428 11.9258 36.4248 11.9023C36.5068 11.8789 36.5654 11.8379 36.6006 11.7793ZM36.4775 13.1855C36.2432 13.1855 36.0381 13.1328 35.8623 13.0273C35.6982 12.9102 35.5283 12.7812 35.3525 12.6406C35.1885 12.5 35.0127 12.3711 34.8252 12.2539C34.6494 12.125 34.4326 12.0488 34.1748 12.0254C34.0693 12.166 33.9463 12.3008 33.8057 12.4297C33.665 12.5469 33.542 12.6758 33.4365 12.8164C33.3311 12.957 33.2549 13.1094 33.208 13.2734C33.1729 13.4375 33.2021 13.625 33.2959 13.8359C33.0264 13.9648 32.8447 14.1523 32.751 14.3984C32.6572 14.6328 32.5928 14.8906 32.5576 15.1719C32.5342 15.4531 32.5107 15.7344 32.4873 16.0156C32.4639 16.2969 32.3877 16.5488 32.2588 16.7715L32.6455 16.5078C32.6924 16.5312 32.7275 16.5664 32.751 16.6133C32.7861 16.6602 32.792 16.7129 32.7686 16.7715C32.8623 16.6777 32.9678 16.6074 33.085 16.5605C33.2021 16.502 33.3193 16.4609 33.4365 16.4375C33.5654 16.4023 33.6885 16.373 33.8057 16.3496C33.9346 16.3262 34.0576 16.291 34.1748 16.2441C34.4678 16.4082 34.6787 16.4434 34.8076 16.3496C34.9365 16.2559 35.042 16.1152 35.124 15.9277C35.2061 15.7402 35.2939 15.5469 35.3877 15.3477C35.4814 15.1367 35.6338 15.0078 35.8447 14.9609L35.7217 14.8379C35.9209 14.5918 36.0967 14.3398 36.249 14.082C36.4131 13.8125 36.4893 13.5137 36.4775 13.1855Z" fill="#231F20"/>
</svg>
